<?xml version="1.0" encoding="UTF-8" standalone="no" ?>
<!DOCTYPE svg PUBLIC "-//W3C//DTD SVG 1.1//EN" "http://www.w3.org/Graphics/SVG/1.1/DTD/svg11.dtd">
<svg xmlns="http://www.w3.org/2000/svg" xmlns:xlink="http://www.w3.org/1999/xlink" version="1.1" width="1080" height="1080" viewBox="0 0 1080 1080" xml:space="preserve">
<desc>Created with Fabric.js 5.2.4</desc>
<defs>
</defs>
<g transform="matrix(1 0 0 1 540 540)" id="98406cb1-44c2-40a4-94ed-eadb73776f55"  >
</g>
<g transform="matrix(1 0 0 1 540 540)" id="79a86682-b408-47b6-80a9-b6cc71c48843"  >
<rect style="stroke: none; stroke-width: 1; stroke-dasharray: none; stroke-linecap: butt; stroke-dashoffset: 0; stroke-linejoin: miter; stroke-miterlimit: 4; fill: rgb(255,255,255); fill-rule: nonzero; opacity: 1; visibility: hidden;" vector-effect="non-scaling-stroke"  x="-540" y="-540" rx="0" ry="0" width="1080" height="1080" />
</g>
<g transform="matrix(7 0 0 7 540 540)"  >
<g style="" vector-effect="non-scaling-stroke"   >
		<g transform="matrix(1 0 0 1 0 0)"  >
<rect style="stroke: none; stroke-width: 1; stroke-dasharray: none; stroke-linecap: butt; stroke-dashoffset: 0; stroke-linejoin: miter; stroke-miterlimit: 4; fill: rgb(200,21,47); fill-rule: nonzero; opacity: 1;" vector-effect="non-scaling-stroke"  x="-87.4" y="-43.7" rx="0" ry="0" width="174.8" height="87.4" />
</g>
		<g transform="matrix(1 0 0 1 5.94 -14.41)"  >
<path style="stroke: none; stroke-width: 1; stroke-dasharray: none; stroke-linecap: butt; stroke-dashoffset: 0; stroke-linejoin: miter; stroke-miterlimit: 4; fill: rgb(255,255,255); fill-rule: nonzero; opacity: 1;" vector-effect="non-scaling-stroke"  transform=" translate(-93.34, -29.3)" d="M 95.274 33.692 L 95.274 29.483 L 94.026 31.655 L 92.64399999999999 31.655 L 91.39699999999999 29.483 L 91.39699999999999 33.692 L 89.237 33.692 L 89.237 24.903 L 91.36 24.903 L 93.336 28.779999999999998 L 95.312 24.903 L 97.435 24.903 L 97.435 33.692 L 95.274 33.692 z" stroke-linecap="round" />
</g>
		<g transform="matrix(1 0 0 1 5.93 0.19)"  >
<path style="stroke: none; stroke-width: 1; stroke-dasharray: none; stroke-linecap: butt; stroke-dashoffset: 0; stroke-linejoin: miter; stroke-miterlimit: 4; fill: rgb(255,255,255); fill-rule: nonzero; opacity: 1;" vector-effect="non-scaling-stroke"  transform=" translate(-93.34, -43.89)" d="M 94.417 41.423 L 94.417 48.286 L 92.257 48.286 L 92.257 41.423 L 90.096 41.423 L 90.096 39.497 L 96.577 39.497 L 96.577 41.423 L 94.417 41.423 z" stroke-linecap="round" />
</g>
		<g transform="matrix(1 0 0 1 5.93 14.86)"  >
<path style="stroke: none; stroke-width: 1; stroke-dasharray: none; stroke-linecap: butt; stroke-dashoffset: 0; stroke-linejoin: miter; stroke-miterlimit: 4; fill: rgb(255,255,255); fill-rule: nonzero; opacity: 1;" vector-effect="non-scaling-stroke"  transform=" translate(-93.34, -58.56)" d="M 95.817 62.018 C 95.163 62.684 94.37299999999999 63.03 93.323 63.03 C 92.29899999999999 63.03 91.52099999999999 62.684000000000005 90.88 62.044000000000004 C 89.954 61.118 89.991 59.882000000000005 89.991 58.562000000000005 C 89.991 57.242000000000004 89.954 56.007000000000005 90.88 55.08200000000001 C 91.52199999999999 54.43900000000001 92.26299999999999 54.09400000000001 93.323 54.09400000000001 C 94.583 54.09400000000001 95.249 54.391000000000005 96.03999999999999 55.18000000000001 L 94.57 56.65100000000001 C 94.151 56.23100000000001 93.87899999999999 56.02000000000001 93.323 56.02000000000001 C 92.928 56.02000000000001 92.63199999999999 56.19400000000001 92.47099999999999 56.40300000000001 C 92.27399999999999 56.66300000000001 92.151 56.960000000000015 92.151 58.56300000000002 C 92.151 60.16800000000001 92.274 60.47700000000002 92.47099999999999 60.737000000000016 C 92.63099999999999 60.94600000000002 92.92799999999998 61.106000000000016 93.323 61.106000000000016 C 93.77999999999999 61.106000000000016 94.014 60.97100000000002 94.21199999999999 60.76000000000002 C 94.44599999999998 60.52600000000002 94.53299999999999 60.09400000000002 94.53299999999999 59.79700000000002 L 94.53299999999999 59.69900000000002 L 93.323 59.69900000000002 L 93.323 57.89600000000002 L 96.67999999999999 57.89600000000002 L 96.67999999999999 59.08200000000002 C 96.681 60.5 96.483 61.338 95.817 62.018 z" stroke-linecap="round" />
</g>
		<g transform="matrix(1 0 0 1 14.45 -13.01)"  >
<path style="stroke: none; stroke-width: 1; stroke-dasharray: none; stroke-linecap: butt; stroke-dashoffset: 0; stroke-linejoin: miter; stroke-miterlimit: 4; fill: rgb(255,255,255); fill-rule: nonzero; opacity: 1;" vector-effect="non-scaling-stroke"  transform=" translate(-101.86, -30.69)" d="M 103.355 33.696 L 103.355 33.016 C 103.141 33.262 102.88900000000001 33.449999999999996 102.598 33.577999999999996 C 102.307 33.705 101.989 33.769 101.643 33.769 C 100.979 33.769 100.457 33.58 100.081 33.201 C 99.867 32.986 99.712 32.738 99.61200000000001 32.453 C 99.51400000000001 32.17 99.46600000000001 31.851000000000003 99.46600000000001 31.496000000000002 L 99.46600000000001 27.62 L 100.355 27.62 L 100.355 31.362000000000002 C 100.355 31.905 100.486 32.311 100.74900000000001 32.579 C 101.01200000000001 32.847 101.37200000000001 32.979 101.831 32.979 C 102.291 32.979 102.657 32.842 102.932 32.571 C 103.20700000000001 32.3 103.34400000000001 31.897 103.34400000000001 31.362 L 103.34400000000001 27.62 L 104.24600000000001 27.62 L 104.24600000000001 33.696 L 103.355 33.696 z" stroke-linecap="round" />
</g>
		<g transform="matrix(1 0 0 1 20.69 -13.05)"  >
<path style="stroke: none; stroke-width: 1; stroke-dasharray: none; stroke-linecap: butt; stroke-dashoffset: 0; stroke-linejoin: miter; stroke-miterlimit: 4; fill: rgb(255,255,255); fill-rule: nonzero; opacity: 1;" vector-effect="non-scaling-stroke"  transform=" translate(-108.09, -30.66)" d="M 110.393 32.702 C 110.273 32.928999999999995 110.105 33.122 109.886 33.282 C 109.66799999999999 33.44199999999999 109.408 33.562999999999995 109.109 33.644999999999996 C 108.80799999999999 33.729 108.472 33.769999999999996 108.10199999999999 33.769999999999996 C 107.58299999999998 33.769999999999996 107.12299999999999 33.70399999999999 106.71799999999999 33.57299999999999 C 106.31599999999999 33.43999999999999 105.945 33.21399999999999 105.60699999999999 32.892999999999994 L 106.2 32.3 C 106.438 32.556 106.718 32.738 107.04 32.842999999999996 C 107.36 32.949999999999996 107.71000000000001 33.004999999999995 108.08900000000001 33.004999999999995 C 108.59100000000001 33.004999999999995 108.98600000000002 32.91499999999999 109.275 32.739 C 109.56400000000001 32.561 109.70800000000001 32.291999999999994 109.70800000000001 31.929999999999996 C 109.70800000000001 31.665999999999997 109.62700000000001 31.458999999999996 109.46700000000001 31.310999999999996 C 109.30700000000002 31.162999999999997 109.049 31.072999999999997 108.69600000000001 31.039999999999996 L 107.69600000000001 30.953999999999997 C 107.10200000000002 30.904999999999998 106.65200000000002 30.746999999999996 106.34300000000002 30.478999999999996 C 106.03300000000002 30.210999999999995 105.87900000000002 29.826999999999995 105.87900000000002 29.322999999999997 C 105.87900000000002 29.043999999999997 105.93600000000002 28.795999999999996 106.04600000000002 28.576999999999998 C 106.15700000000002 28.357999999999997 106.31200000000003 28.173 106.51000000000002 28.02 C 106.70700000000002 27.868 106.94400000000002 27.75 107.21900000000002 27.668 C 107.49500000000002 27.586 107.79300000000002 27.544999999999998 108.11500000000002 27.544999999999998 C 108.55100000000003 27.544999999999998 108.95700000000002 27.598 109.33100000000002 27.705 C 109.70500000000001 27.811999999999998 110.02900000000001 27.976 110.30100000000002 28.198999999999998 L 109.72100000000002 28.778999999999996 C 109.50600000000001 28.614999999999995 109.26200000000001 28.493999999999996 108.98600000000002 28.415999999999997 C 108.71000000000002 28.337999999999997 108.41600000000003 28.298999999999996 108.10300000000002 28.298999999999996 C 107.65900000000002 28.298999999999996 107.32100000000003 28.386999999999997 107.09000000000002 28.562999999999995 C 106.86000000000001 28.740999999999996 106.74400000000001 28.986999999999995 106.74400000000001 29.298999999999996 C 106.74400000000001 29.562999999999995 106.82400000000001 29.767999999999997 106.98400000000001 29.915999999999997 C 107.14500000000001 30.063999999999997 107.41900000000001 30.153999999999996 107.80600000000001 30.186999999999998 L 108.781 30.272999999999996 C 109.045 30.297999999999995 109.28800000000001 30.342999999999996 109.51 30.409999999999997 C 109.733 30.475999999999996 109.92200000000001 30.573999999999998 110.078 30.706999999999997 C 110.23400000000001 30.837999999999997 110.35600000000001 31.002 110.443 31.198999999999998 C 110.529 31.398 110.572 31.636999999999997 110.572 31.915999999999997 C 110.571 32.214 110.512 32.476 110.393 32.702 z" stroke-linecap="round" />
</g>
		<g transform="matrix(1 0 0 1 25.03 -14.41)"  >
<path style="stroke: none; stroke-width: 1; stroke-dasharray: none; stroke-linecap: butt; stroke-dashoffset: 0; stroke-linejoin: miter; stroke-miterlimit: 4; fill: rgb(255,255,255); fill-rule: nonzero; opacity: 1;" vector-effect="non-scaling-stroke"  transform=" translate(-112.43, -29.29)" d="M 111.934 25.89 L 111.934 24.89 L 112.935 24.89 L 112.935 25.89 L 111.934 25.89 z M 111.983 33.696 L 111.983 27.62 L 112.872 27.62 L 112.872 33.696 L 111.983 33.696 z" stroke-linecap="round" />
</g>
		<g transform="matrix(1 0 0 1 29.39 -13.04)"  >
<path style="stroke: none; stroke-width: 1; stroke-dasharray: none; stroke-linecap: butt; stroke-dashoffset: 0; stroke-linejoin: miter; stroke-miterlimit: 4; fill: rgb(255,255,255); fill-rule: nonzero; opacity: 1;" vector-effect="non-scaling-stroke"  transform=" translate(-116.79, -30.66)" d="M 118.217 33.573 C 117.917 33.704 117.556 33.77 117.136 33.77 C 116.749 33.77 116.39399999999999 33.706 116.068 33.579 C 115.744 33.45 115.459 33.257 115.216 32.997 C 114.97399999999999 32.739 114.78399999999999 32.413 114.648 32.022 C 114.51299999999999 31.631 114.445 31.176 114.445 30.657 C 114.445 30.139 114.51299999999999 29.686 114.648 29.3 C 114.785 28.913 114.97399999999999 28.589000000000002 115.216 28.329 C 115.458 28.071 115.743 27.874000000000002 116.068 27.743000000000002 C 116.39399999999999 27.612000000000002 116.75 27.546000000000003 117.136 27.546000000000003 C 117.556 27.546000000000003 117.917 27.612000000000002 118.217 27.743000000000002 C 118.518 27.874000000000002 118.824 28.110000000000003 119.138 28.446 L 118.533 29.014000000000003 C 118.303 28.76 118.084 28.582000000000004 117.879 28.483000000000004 C 117.67200000000001 28.385000000000005 117.426 28.335000000000004 117.137 28.335000000000004 C 116.841 28.335000000000004 116.574 28.394000000000005 116.334 28.509000000000004 C 116.096 28.624000000000002 115.89500000000001 28.798000000000005 115.73 29.029000000000003 C 115.59 29.226000000000003 115.489 29.451000000000004 115.427 29.701000000000004 C 115.36500000000001 29.953000000000003 115.334 30.271000000000004 115.334 30.658000000000005 C 115.334 31.045000000000005 115.36500000000001 31.365000000000006 115.427 31.615000000000006 C 115.489 31.867000000000004 115.59 32.092000000000006 115.73 32.28900000000001 C 115.89500000000001 32.519000000000005 116.096 32.69100000000001 116.334 32.80700000000001 C 116.57300000000001 32.92400000000001 116.84100000000001 32.98100000000001 117.137 32.98100000000001 C 117.426 32.98100000000001 117.672 32.93000000000001 117.879 32.827000000000005 C 118.084 32.723000000000006 118.30300000000001 32.54600000000001 118.533 32.290000000000006 L 119.138 32.870000000000005 C 118.824 33.206 118.518 33.44 118.217 33.573 z" stroke-linecap="round" />
</g>
		<g transform="matrix(1 0 0 1 12.33 1.54)"  >
<path style="stroke: none; stroke-width: 1; stroke-dasharray: none; stroke-linecap: butt; stroke-dashoffset: 0; stroke-linejoin: miter; stroke-miterlimit: 4; fill: rgb(255,255,255); fill-rule: nonzero; opacity: 1;" vector-effect="non-scaling-stroke"  transform=" translate(-99.74, -45.24)" d="M 98.132 45.477 C 98.132 46.141 98.284 46.654999999999994 98.589 47.017999999999994 C 98.894 47.382999999999996 99.338 47.56499999999999 99.923 47.56499999999999 C 100.277 47.56499999999999 100.571 47.50999999999999 100.806 47.398999999999994 C 101.041 47.288 101.277 47.111999999999995 101.51599999999999 46.873999999999995 L 102.11999999999999 47.404999999999994 C 101.96399999999998 47.56099999999999 101.80899999999998 47.699999999999996 101.657 47.81699999999999 C 101.50500000000001 47.93399999999999 101.343 48.032 101.17 48.111999999999995 C 100.997 48.19 100.806 48.251 100.595 48.294 C 100.386 48.334999999999994 100.154 48.355999999999995 99.898 48.355999999999995 C 99.49499999999999 48.355999999999995 99.13 48.294 98.80499999999999 48.169999999999995 C 98.47999999999999 48.04599999999999 98.202 47.858 97.972 47.602 C 97.741 47.346 97.562 47.023999999999994 97.434 46.632999999999996 C 97.306 46.239999999999995 97.243 45.778 97.243 45.242 C 97.243 44.253 97.466 43.488 97.91 42.945 C 98.35499999999999 42.402 98.964 42.131 99.738 42.131 C 100.528 42.131 101.141 42.395 101.578 42.92 C 102.015 43.447 102.232 44.164 102.232 45.071 L 102.232 45.477 L 98.132 45.477 z M 101.317 44.49 C 101.309 44.398 101.29899999999999 44.316 101.28699999999999 44.242000000000004 C 101.27499999999999 44.168000000000006 101.25899999999999 44.096000000000004 101.237 44.025000000000006 C 101.216 43.95700000000001 101.19 43.88 101.157 43.79600000000001 C 101.042 43.517 100.856 43.294000000000004 100.601 43.13000000000001 C 100.346 42.966000000000015 100.057 42.88400000000001 99.737 42.88400000000001 C 99.416 42.88400000000001 99.128 42.96600000000001 98.872 43.13000000000001 C 98.617 43.29400000000001 98.433 43.51700000000001 98.317 43.79600000000001 C 98.25099999999999 43.962 98.20599999999999 44.11000000000001 98.17999999999999 44.24100000000001 C 98.15599999999999 44.37400000000001 98.139 44.56100000000001 98.13099999999999 44.81000000000001 L 101.34199999999998 44.81000000000001 C 101.335 44.688 101.326 44.58 101.317 44.49 z" stroke-linecap="round" />
</g>
		<g transform="matrix(1 0 0 1 18.49 1.54)"  >
<path style="stroke: none; stroke-width: 1; stroke-dasharray: none; stroke-linecap: butt; stroke-dashoffset: 0; stroke-linejoin: miter; stroke-miterlimit: 4; fill: rgb(255,255,255); fill-rule: nonzero; opacity: 1;" vector-effect="non-scaling-stroke"  transform=" translate(-105.89, -45.24)" d="M 107.313 48.159 C 107.013 48.29 106.653 48.356 106.233 48.356 C 105.846 48.356 105.49000000000001 48.292 105.165 48.165 C 104.84 48.036 104.55600000000001 47.842999999999996 104.313 47.583 C 104.07000000000001 47.324999999999996 103.88 46.998999999999995 103.745 46.608 C 103.61000000000001 46.217 103.54100000000001 45.762 103.54100000000001 45.242999999999995 C 103.54100000000001 44.724999999999994 103.60900000000001 44.272 103.745 43.885 C 103.881 43.498 104.07000000000001 43.174 104.313 42.914 C 104.555 42.656 104.839 42.459 105.165 42.328 C 105.49100000000001 42.197 105.84700000000001 42.131 106.233 42.131 C 106.653 42.131 107.013 42.197 107.313 42.328 C 107.614 42.459 107.92 42.695 108.23400000000001 43.031000000000006 L 107.629 43.599000000000004 C 107.399 43.345000000000006 107.18100000000001 43.167 106.97500000000001 43.068000000000005 C 106.769 42.970000000000006 106.522 42.92 106.23400000000001 42.92 C 105.93700000000001 42.92 105.67000000000002 42.979 105.43100000000001 43.094 C 105.19200000000001 43.209 104.99100000000001 43.383 104.82600000000001 43.614000000000004 C 104.686 43.81100000000001 104.58600000000001 44.036 104.52300000000001 44.286 C 104.462 44.538000000000004 104.43100000000001 44.857 104.43100000000001 45.244 C 104.43100000000001 45.631 104.46200000000002 45.951 104.52300000000001 46.201 C 104.58500000000001 46.453 104.686 46.678 104.82600000000001 46.875 C 104.99100000000001 47.105 105.19300000000001 47.277 105.43100000000001 47.393 C 105.66900000000001 47.51 105.93700000000001 47.567 106.23400000000001 47.567 C 106.522 47.567 106.769 47.516 106.97500000000001 47.413 C 107.18100000000001 47.309999999999995 107.39900000000002 47.132 107.629 46.876 L 108.23400000000001 47.455999999999996 C 107.921 47.792 107.614 48.026 107.313 48.159 z" stroke-linecap="round" />
</g>
		<g transform="matrix(1 0 0 1 24.61 0.19)"  >
<path style="stroke: none; stroke-width: 1; stroke-dasharray: none; stroke-linecap: butt; stroke-dashoffset: 0; stroke-linejoin: miter; stroke-miterlimit: 4; fill: rgb(255,255,255); fill-rule: nonzero; opacity: 1;" vector-effect="non-scaling-stroke"  transform=" translate(-112.01, -43.89)" d="M 113.511 48.282 L 113.511 44.525999999999996 C 113.511 43.992999999999995 113.38 43.589999999999996 113.116 43.32299999999999 C 112.852 43.05599999999999 112.49 42.92099999999999 112.028 42.92099999999999 C 111.56700000000001 42.92099999999999 111.19900000000001 43.05799999999999 110.924 43.32899999999999 C 110.64800000000001 43.599999999999994 110.51 44.00099999999999 110.51 44.525999999999996 L 110.51 48.282 L 109.62 48.282 L 109.62 39.489 L 110.51 39.489 L 110.51 42.872 C 110.947 42.378 111.515 42.132 112.214 42.132 C 112.905 42.132 113.443 42.333 113.826 42.736999999999995 C 114.20899999999999 43.138999999999996 114.39999999999999 43.687999999999995 114.39999999999999 44.379999999999995 L 114.39999999999999 48.282999999999994 L 113.511 48.282999999999994 z" stroke-linecap="round" />
</g>
		<g transform="matrix(1 0 0 1 31.22 1.51)"  >
<path style="stroke: none; stroke-width: 1; stroke-dasharray: none; stroke-linecap: butt; stroke-dashoffset: 0; stroke-linejoin: miter; stroke-miterlimit: 4; fill: rgb(255,255,255); fill-rule: nonzero; opacity: 1;" vector-effect="non-scaling-stroke"  transform=" translate(-118.62, -45.21)" d="M 120.124 48.282 L 120.124 44.538999999999994 C 120.124 43.995999999999995 119.99 43.589999999999996 119.72399999999999 43.321999999999996 C 119.45499999999998 43.053999999999995 119.091 42.919999999999995 118.63 42.919999999999995 C 118.169 42.919999999999995 117.803 43.056999999999995 117.53 43.327999999999996 C 117.259 43.599 117.123 44.004 117.123 44.538999999999994 L 117.123 48.282 L 116.233 48.282 L 116.233 42.205 L 117.123 42.205 L 117.123 42.870999999999995 C 117.337 42.62499999999999 117.589 42.43899999999999 117.876 42.315999999999995 C 118.165 42.190999999999995 118.48100000000001 42.129999999999995 118.827 42.129999999999995 C 119.486 42.129999999999995 120.005 42.318999999999996 120.384 42.69799999999999 C 120.804 43.10999999999999 121.014 43.672999999999995 121.014 44.388999999999996 L 121.014 48.279999999999994 L 120.124 48.279999999999994 z" stroke-linecap="round" />
</g>
		<g transform="matrix(1 0 0 1 37.64 1.54)"  >
<path style="stroke: none; stroke-width: 1; stroke-dasharray: none; stroke-linecap: butt; stroke-dashoffset: 0; stroke-linejoin: miter; stroke-miterlimit: 4; fill: rgb(255,255,255); fill-rule: nonzero; opacity: 1;" vector-effect="non-scaling-stroke"  transform=" translate(-125.04, -45.24)" d="M 127.381 46.571 C 127.286 46.986999999999995 127.087 47.35 126.782 47.665 C 126.567 47.878 126.316 48.048 126.02799999999999 48.171 C 125.73999999999998 48.294 125.41099999999999 48.357 125.03999999999999 48.357 C 124.66999999999999 48.357 124.341 48.295 124.05199999999999 48.171 C 123.76499999999999 48.048 123.51299999999999 47.878 123.29899999999999 47.665 C 123.14299999999999 47.509 123.017 47.336999999999996 122.92299999999999 47.150999999999996 C 122.82699999999998 46.964999999999996 122.75299999999999 46.772 122.69999999999999 46.571 C 122.64599999999999 46.37 122.609 46.157 122.58899999999998 45.934 C 122.56799999999998 45.713 122.55799999999998 45.483 122.55799999999998 45.242999999999995 C 122.55799999999998 45.013 122.56899999999997 44.78399999999999 122.58899999999998 44.556999999999995 C 122.60999999999999 44.33 122.64699999999999 44.117999999999995 122.69999999999999 43.913999999999994 C 122.75299999999999 43.712999999999994 122.82699999999998 43.51899999999999 122.92299999999999 43.333999999999996 C 123.01699999999998 43.147999999999996 123.14299999999999 42.979 123.29899999999999 42.821999999999996 C 123.51299999999999 42.60699999999999 123.76499999999999 42.43899999999999 124.05199999999999 42.315999999999995 C 124.341 42.190999999999995 124.66999999999999 42.129999999999995 125.03999999999999 42.129999999999995 C 125.41099999999999 42.129999999999995 125.74 42.190999999999995 126.02799999999999 42.315999999999995 C 126.31599999999999 42.43899999999999 126.567 42.60699999999999 126.782 42.821999999999996 C 127.087 43.13399999999999 127.286 43.49999999999999 127.381 43.913999999999994 C 127.476 44.32999999999999 127.523 44.773999999999994 127.523 45.242999999999995 C 127.522 45.713 127.476 46.155 127.381 46.571 z M 126.621 44.725 C 126.612 44.551 126.59299999999999 44.383 126.559 44.217 C 126.526 44.053 126.477 43.899 126.411 43.754 C 126.345 43.611 126.259 43.480999999999995 126.151 43.364999999999995 C 125.85499999999999 43.068 125.485 42.919999999999995 125.03999999999999 42.919999999999995 C 124.60399999999998 42.919999999999995 124.237 43.068 123.94099999999999 43.364999999999995 C 123.82499999999999 43.48 123.737 43.611 123.67499999999998 43.754 C 123.61299999999999 43.899 123.56399999999998 44.053 123.52699999999999 44.217 C 123.48999999999998 44.382999999999996 123.46699999999998 44.551 123.46 44.725 C 123.451 44.897 123.44699999999999 45.071 123.44699999999999 45.243 C 123.44699999999999 45.417 123.451 45.589 123.46 45.763000000000005 C 123.46799999999999 45.935 123.49 46.105000000000004 123.52699999999999 46.269000000000005 C 123.56399999999998 46.43300000000001 123.61399999999999 46.589000000000006 123.67499999999998 46.73800000000001 C 123.73599999999998 46.88700000000001 123.82399999999998 47.01500000000001 123.94099999999999 47.12100000000001 C 124.237 47.418000000000006 124.60399999999998 47.56600000000001 125.03999999999999 47.56600000000001 C 125.48499999999999 47.56600000000001 125.85499999999999 47.418000000000006 126.151 47.12100000000001 C 126.258 47.01600000000001 126.344 46.88700000000001 126.411 46.73800000000001 C 126.47800000000001 46.589000000000006 126.526 46.43300000000001 126.559 46.269000000000005 C 126.592 46.105000000000004 126.612 45.935 126.621 45.763000000000005 C 126.63 45.589000000000006 126.634 45.41700000000001 126.634 45.243 C 126.634 45.071 126.63 44.897 126.621 44.725 z" stroke-linecap="round" />
</g>
		<g transform="matrix(1 0 0 1 42.78 0.19)"  >
<path style="stroke: none; stroke-width: 1; stroke-dasharray: none; stroke-linecap: butt; stroke-dashoffset: 0; stroke-linejoin: miter; stroke-miterlimit: 4; fill: rgb(255,255,255); fill-rule: nonzero; opacity: 1;" vector-effect="non-scaling-stroke"  transform=" translate(-130.18, -43.89)" d="M 130.63 48.282 C 130.095 48.282 129.704 48.12799999999999 129.457 47.818999999999996 C 129.20999999999998 47.51 129.087 47.126 129.087 46.663 L 129.087 39.489 L 129.976 39.489 L 129.976 46.626 C 129.976 46.922999999999995 130.034 47.146 130.149 47.294 C 130.264 47.44199999999999 130.478 47.516999999999996 130.791 47.516999999999996 L 131.273 47.516999999999996 L 131.273 48.282999999999994 L 130.63 48.282999999999994 z" stroke-linecap="round" />
</g>
		<g transform="matrix(1 0 0 1 47.26 1.54)"  >
<path style="stroke: none; stroke-width: 1; stroke-dasharray: none; stroke-linecap: butt; stroke-dashoffset: 0; stroke-linejoin: miter; stroke-miterlimit: 4; fill: rgb(255,255,255); fill-rule: nonzero; opacity: 1;" vector-effect="non-scaling-stroke"  transform=" translate(-134.67, -45.24)" d="M 137.007 46.571 C 136.911 46.986999999999995 136.71200000000002 47.35 136.407 47.665 C 136.192 47.878 135.942 48.048 135.65300000000002 48.171 C 135.366 48.294 135.03600000000003 48.357 134.66600000000003 48.357 C 134.29600000000002 48.357 133.96600000000004 48.295 133.67800000000003 48.171 C 133.39000000000001 48.047 133.13900000000004 47.878 132.92500000000004 47.665 C 132.76900000000003 47.509 132.64300000000003 47.336999999999996 132.54800000000003 47.150999999999996 C 132.45300000000003 46.964999999999996 132.37900000000002 46.772 132.32500000000002 46.571 C 132.27200000000002 46.37 132.235 46.157 132.21400000000003 45.934 C 132.19400000000002 45.713 132.18400000000003 45.483 132.18400000000003 45.242999999999995 C 132.18400000000003 45.013 132.19500000000002 44.78399999999999 132.21400000000003 44.556999999999995 C 132.235 44.33 132.27300000000002 44.117999999999995 132.32500000000002 43.913999999999994 C 132.37900000000002 43.712999999999994 132.453 43.51899999999999 132.54800000000003 43.333999999999996 C 132.64300000000006 43.149 132.76900000000003 42.979 132.92500000000004 42.821999999999996 C 133.13900000000004 42.60699999999999 133.39000000000004 42.43899999999999 133.67800000000003 42.315999999999995 C 133.96600000000004 42.190999999999995 134.29600000000002 42.129999999999995 134.66600000000003 42.129999999999995 C 135.03600000000003 42.129999999999995 135.366 42.190999999999995 135.65300000000002 42.315999999999995 C 135.942 42.43899999999999 136.192 42.60699999999999 136.407 42.821999999999996 C 136.71200000000002 43.13399999999999 136.911 43.49999999999999 137.007 43.913999999999994 C 137.101 44.32999999999999 137.148 44.773999999999994 137.148 45.242999999999995 C 137.147 45.713 137.101 46.155 137.007 46.571 z M 136.247 44.725 C 136.23800000000003 44.551 136.21800000000002 44.383 136.185 44.217 C 136.15200000000002 44.053 136.103 43.899 136.037 43.754 C 135.972 43.611 135.88500000000002 43.480999999999995 135.77800000000002 43.364999999999995 C 135.48200000000003 43.068 135.11100000000002 42.919999999999995 134.66700000000003 42.919999999999995 C 134.23000000000002 42.919999999999995 133.86400000000003 43.068 133.56800000000004 43.364999999999995 C 133.45200000000003 43.48 133.36300000000003 43.611 133.30200000000005 43.754 C 133.24000000000004 43.899 133.19100000000006 44.053 133.15400000000005 44.217 C 133.11700000000005 44.382999999999996 133.09300000000005 44.551 133.08600000000004 44.725 C 133.07800000000003 44.897 133.07400000000004 45.071 133.07400000000004 45.243 C 133.07400000000004 45.417 133.07800000000003 45.589 133.08600000000004 45.763000000000005 C 133.09400000000005 45.935 133.11700000000005 46.105000000000004 133.15400000000005 46.269000000000005 C 133.19100000000006 46.43300000000001 133.24000000000007 46.589000000000006 133.30200000000005 46.73800000000001 C 133.36300000000006 46.88600000000001 133.45100000000005 47.01500000000001 133.56800000000004 47.12100000000001 C 133.86400000000003 47.418000000000006 134.23000000000005 47.56600000000001 134.66700000000003 47.56600000000001 C 135.11100000000002 47.56600000000001 135.48200000000003 47.418000000000006 135.77800000000002 47.12100000000001 C 135.88400000000001 47.01600000000001 135.97100000000003 46.88700000000001 136.037 46.73800000000001 C 136.103 46.59 136.15200000000002 46.43300000000001 136.185 46.269000000000005 C 136.218 46.105000000000004 136.239 45.935 136.247 45.763000000000005 C 136.25500000000002 45.589000000000006 136.25900000000001 45.41700000000001 136.25900000000001 45.243 C 136.259 45.071 136.255 44.897 136.247 44.725 z" stroke-linecap="round" />
</g>
		<g transform="matrix(1 0 0 1 53.48 2.9)"  >
<path style="stroke: none; stroke-width: 1; stroke-dasharray: none; stroke-linecap: butt; stroke-dashoffset: 0; stroke-linejoin: miter; stroke-miterlimit: 4; fill: rgb(255,255,255); fill-rule: nonzero; opacity: 1;" vector-effect="non-scaling-stroke"  transform=" translate(-140.88, -46.6)" d="M 143.113 49.51 C 142.99699999999999 49.826 142.833 50.1 142.619 50.33 C 142.405 50.559999999999995 142.14 50.742 141.822 50.875 C 141.505 51.006 141.149 51.072 140.755 51.072 C 140.524 51.072 140.317 51.056000000000004 140.137 51.027 C 139.957 50.998 139.784 50.951 139.624 50.882 C 139.464 50.815999999999995 139.308 50.73 139.155 50.626 C 139.00300000000001 50.521 138.848 50.394 138.692 50.242999999999995 L 139.27200000000002 49.675 C 139.37800000000001 49.775 139.48300000000003 49.861 139.586 49.934999999999995 C 139.689 50.00899999999999 139.79600000000002 50.074 139.907 50.126 C 140.018 50.178 140.139 50.217999999999996 140.27100000000002 50.242999999999995 C 140.40300000000002 50.267999999999994 140.555 50.279999999999994 140.728 50.279999999999994 C 141.025 50.279999999999994 141.27800000000002 50.230999999999995 141.488 50.13399999999999 C 141.69799999999998 50.03699999999999 141.871 49.904999999999994 142.007 49.74099999999999 C 142.143 49.57899999999999 142.241 49.38399999999999 142.303 49.160999999999994 C 142.365 48.93599999999999 142.397 48.69199999999999 142.397 48.431999999999995 L 142.397 47.489 C 142.149 47.797999999999995 141.885 48.004999999999995 141.606 48.11 C 141.326 48.214 141.021 48.266 140.692 48.266 C 140.38 48.266 140.097 48.217 139.846 48.12 C 139.594 48.019999999999996 139.387 47.89 139.222 47.724 C 138.917 47.419 138.717 47.044 138.62300000000002 46.601 C 138.52800000000002 46.156 138.48000000000002 45.687 138.48000000000002 45.193 C 138.48000000000002 44.699 138.52800000000002 44.23 138.62300000000002 43.784 C 138.717 43.339 138.91700000000003 42.966 139.222 42.661 C 139.387 42.495000000000005 139.596 42.366 139.852 42.272 C 140.108 42.176 140.391 42.129 140.704 42.129 C 141.042 42.129 141.34900000000002 42.18 141.625 42.283 C 141.9 42.387 142.162 42.597 142.409 42.918 L 142.409 42.202999999999996 L 143.286 42.202999999999996 L 143.286 48.464999999999996 C 143.286 48.844 143.228 49.194 143.113 49.51 z M 142.347 44.363 C 142.315 44.088 142.244 43.842999999999996 142.138 43.633 C 142.031 43.422000000000004 141.87800000000001 43.252 141.681 43.119 C 141.484 42.986 141.22 42.92 140.89000000000001 42.92 C 140.561 42.92 140.29500000000002 42.986000000000004 140.09300000000002 43.119 C 139.89200000000002 43.252 139.73800000000003 43.422 139.63000000000002 43.633 C 139.52400000000003 43.844 139.45300000000003 44.088 139.42100000000002 44.363 C 139.38800000000003 44.64 139.371 44.918 139.371 45.199 C 139.371 45.488 139.388 45.769 139.42100000000002 46.041 C 139.45300000000003 46.314 139.52400000000003 46.555 139.63000000000002 46.766 C 139.73700000000002 46.977 139.89200000000002 47.149 140.09300000000002 47.28 C 140.29500000000002 47.413000000000004 140.561 47.479 140.89000000000001 47.479 C 141.22000000000003 47.479 141.484 47.413 141.681 47.28 C 141.87800000000001 47.149 142.031 46.977000000000004 142.138 46.766 C 142.244 46.555 142.315 46.315 142.347 46.041 C 142.38 45.769999999999996 142.398 45.488 142.398 45.199 C 142.397 44.918 142.38 44.641 142.347 44.363 z" stroke-linecap="round" />
</g>
		<g transform="matrix(1 0 0 1 59.66 2.84)"  >
<path style="stroke: none; stroke-width: 1; stroke-dasharray: none; stroke-linecap: butt; stroke-dashoffset: 0; stroke-linejoin: miter; stroke-miterlimit: 4; fill: rgb(255,255,255); fill-rule: nonzero; opacity: 1;" vector-effect="non-scaling-stroke"  transform=" translate(-147.07, -46.55)" d="M 146.926 49.75 C 146.81099999999998 50.072 146.666 50.311 146.494 50.467 C 146.328 50.623 146.144 50.733 145.937 50.795 C 145.732 50.856 145.52100000000002 50.887 145.30800000000002 50.887 L 144.925 50.887 L 144.925 50.096000000000004 L 145.196 50.096000000000004 C 145.501 50.096000000000004 145.719 50.041000000000004 145.85 49.93000000000001 C 145.981 49.81900000000001 146.096 49.623000000000005 146.196 49.34400000000001 L 146.628 48.15800000000001 L 144.44199999999998 42.20400000000001 L 145.40499999999997 42.20400000000001 L 147.07299999999998 47.08100000000001 L 148.72699999999998 42.20400000000001 L 149.69199999999998 42.20400000000001 L 146.926 49.75 z" stroke-linecap="round" />
</g>
		<g transform="matrix(1 0 0 1 13.29 16.11)"  >
<path style="stroke: none; stroke-width: 1; stroke-dasharray: none; stroke-linecap: butt; stroke-dashoffset: 0; stroke-linejoin: miter; stroke-miterlimit: 4; fill: rgb(255,255,255); fill-rule: nonzero; opacity: 1;" vector-effect="non-scaling-stroke"  transform=" translate(-100.69, -59.81)" d="M 102.058 57.965 C 101.893 57.801 101.73700000000001 57.686 101.58900000000001 57.61900000000001 C 101.44100000000002 57.553000000000004 101.24700000000001 57.519000000000005 101.00800000000001 57.519000000000005 C 100.78600000000002 57.519000000000005 100.58300000000001 57.562000000000005 100.40400000000001 57.644000000000005 C 100.22200000000001 57.726000000000006 100.07000000000001 57.84100000000001 99.94700000000002 57.99 C 99.82300000000002 58.138000000000005 99.72600000000001 58.31 99.65600000000002 58.508 C 99.58600000000003 58.707 99.55100000000002 58.92 99.55100000000002 59.151 L 99.55100000000002 62.881 L 98.66200000000002 62.881 L 98.66200000000002 56.805 L 99.55100000000002 56.805 L 99.55100000000002 57.545 C 99.71700000000001 57.291000000000004 99.95300000000002 57.09 100.26200000000001 56.945 C 100.57100000000001 56.802 100.90300000000002 56.73 101.25600000000001 56.73 C 101.54400000000001 56.73 101.80500000000002 56.770999999999994 102.04000000000002 56.852999999999994 C 102.27400000000002 56.934999999999995 102.49900000000002 57.08299999999999 102.71300000000002 57.297999999999995 L 102.058 57.965 z" stroke-linecap="round" />
</g>
		<g transform="matrix(1 0 0 1 18.32 16.14)"  >
<path style="stroke: none; stroke-width: 1; stroke-dasharray: none; stroke-linecap: butt; stroke-dashoffset: 0; stroke-linejoin: miter; stroke-miterlimit: 4; fill: rgb(255,255,255); fill-rule: nonzero; opacity: 1;" vector-effect="non-scaling-stroke"  transform=" translate(-105.73, -59.84)" d="M 108.068 61.17 C 107.973 61.586 107.773 61.949000000000005 107.468 62.264 C 107.254 62.477000000000004 107.003 62.647000000000006 106.715 62.77 C 106.427 62.893 106.09700000000001 62.956 105.72800000000001 62.956 C 105.35700000000001 62.956 105.02700000000002 62.894000000000005 104.74000000000001 62.77 C 104.45100000000001 62.647000000000006 104.20100000000001 62.477000000000004 103.986 62.264 C 103.83 62.108000000000004 103.705 61.936 103.60900000000001 61.75 C 103.51500000000001 61.564 103.441 61.371 103.38700000000001 61.17 C 103.33300000000003 60.969 103.29600000000002 60.756 103.27600000000001 60.533 C 103.25500000000001 60.312000000000005 103.24600000000001 60.082 103.24600000000001 59.842 C 103.24600000000001 59.612 103.25600000000001 59.382999999999996 103.27600000000001 59.156 C 103.296 58.929 103.33400000000002 58.717 103.38700000000001 58.513 C 103.44100000000002 58.312 103.51500000000001 58.117999999999995 103.60900000000001 57.933 C 103.70500000000001 57.747 103.83000000000001 57.578 103.986 57.421 C 104.20100000000001 57.205999999999996 104.45100000000001 57.038 104.74000000000001 56.915 C 105.02700000000002 56.79 105.35700000000001 56.729 105.72800000000001 56.729 C 106.09700000000001 56.729 106.427 56.79 106.715 56.915 C 107.003 57.038 107.254 57.205999999999996 107.468 57.421 C 107.77300000000001 57.733 107.973 58.099 108.068 58.513 C 108.16199999999999 58.928999999999995 108.21 59.372 108.21 59.841 C 108.21 60.313 108.162 60.754 108.068 61.17 z M 107.309 59.325 C 107.301 59.151 107.28 58.983000000000004 107.247 58.817 C 107.214 58.653 107.164 58.499 107.099 58.354 C 107.034 58.211 106.947 58.080999999999996 106.84 57.964999999999996 C 106.543 57.668 106.172 57.519999999999996 105.729 57.519999999999996 C 105.291 57.519999999999996 104.926 57.668 104.629 57.964999999999996 C 104.51400000000001 58.08 104.42500000000001 58.211 104.363 58.354 C 104.301 58.499 104.252 58.653 104.215 58.817 C 104.178 58.983 104.155 59.151 104.147 59.325 C 104.13900000000001 59.497 104.135 59.671 104.135 59.843 C 104.135 60.017 104.13900000000001 60.189 104.147 60.36300000000001 C 104.156 60.535000000000004 104.17800000000001 60.705000000000005 104.215 60.86900000000001 C 104.252 61.03300000000001 104.301 61.18900000000001 104.363 61.33800000000001 C 104.425 61.48600000000001 104.513 61.61500000000001 104.629 61.72100000000001 C 104.926 62.01800000000001 105.29100000000001 62.16600000000001 105.729 62.16600000000001 C 106.172 62.16600000000001 106.54299999999999 62.01800000000001 106.84 61.72100000000001 C 106.946 61.616000000000014 107.033 61.48700000000001 107.099 61.33800000000001 C 107.165 61.18900000000001 107.214 61.03300000000001 107.247 60.86900000000001 C 107.279 60.705000000000005 107.301 60.535000000000004 107.309 60.36300000000001 C 107.317 60.18900000000001 107.321 60.01700000000001 107.321 59.843 C 107.32 59.67 107.316 59.497 107.309 59.325 z" stroke-linecap="round" />
</g>
		<g transform="matrix(1 0 0 1 24.73 16.18)"  >
<path style="stroke: none; stroke-width: 1; stroke-dasharray: none; stroke-linecap: butt; stroke-dashoffset: 0; stroke-linejoin: miter; stroke-miterlimit: 4; fill: rgb(255,255,255); fill-rule: nonzero; opacity: 1;" vector-effect="non-scaling-stroke"  transform=" translate(-112.13, -59.88)" d="M 113.627 62.881 L 113.627 62.201 C 113.413 62.447 113.16 62.635 112.869 62.763 C 112.578 62.89 112.26 62.954 111.915 62.954 C 111.25 62.954 110.72900000000001 62.765 110.352 62.386 C 110.13900000000001 62.171 109.983 61.923 109.884 61.638000000000005 C 109.785 61.355000000000004 109.737 61.03600000000001 109.737 60.681000000000004 L 109.737 56.804 L 110.62599999999999 56.804 L 110.62599999999999 60.546 C 110.62599999999999 61.089 110.75699999999999 61.495 111.02099999999999 61.763 C 111.28299999999999 62.031 111.64399999999999 62.163 112.10299999999998 62.163 C 112.56199999999997 62.163 112.92899999999997 62.025999999999996 113.20399999999998 61.754999999999995 C 113.47899999999998 61.483999999999995 113.61599999999999 61.080999999999996 113.61599999999999 60.54599999999999 L 113.61599999999999 56.803999999999995 L 114.51699999999998 56.803999999999995 L 114.51699999999998 62.879999999999995 L 113.627 62.879999999999995 z" stroke-linecap="round" />
</g>
		<g transform="matrix(1 0 0 1 31.4 17.46)"  >
<path style="stroke: none; stroke-width: 1; stroke-dasharray: none; stroke-linecap: butt; stroke-dashoffset: 0; stroke-linejoin: miter; stroke-miterlimit: 4; fill: rgb(255,255,255); fill-rule: nonzero; opacity: 1;" vector-effect="non-scaling-stroke"  transform=" translate(-118.8, -61.17)" d="M 121.188 60.559 C 121.167 60.797 121.13 61.029999999999994 121.077 61.256 C 121.024 61.482000000000006 120.949 61.695 120.855 61.893 C 120.759 62.09 120.634 62.268 120.47800000000001 62.424 C 120.313 62.588 120.10300000000001 62.719 119.84700000000001 62.813 C 119.59200000000001 62.907000000000004 119.308 62.956 118.995 62.956 C 118.65700000000001 62.956 118.349 62.901 118.069 62.794000000000004 C 117.789 62.68900000000001 117.525 62.478 117.278 62.165000000000006 L 117.278 65.599 L 116.38900000000001 65.599 L 116.38900000000001 56.806000000000004 L 117.278 56.806000000000004 L 117.278 57.52100000000001 C 117.525 57.20100000000001 117.789 56.99000000000001 118.069 56.88600000000001 C 118.348 56.78200000000001 118.657 56.732000000000006 118.995 56.732000000000006 C 119.307 56.732000000000006 119.592 56.779 119.84700000000001 56.87500000000001 C 120.10300000000001 56.96900000000001 120.313 57.098000000000006 120.47800000000001 57.26400000000001 C 120.63400000000001 57.42000000000001 120.75900000000001 57.59600000000001 120.855 57.79500000000001 C 120.949 57.99200000000001 121.02300000000001 58.20300000000001 121.077 58.43000000000001 C 121.13099999999999 58.657000000000004 121.16799999999999 58.88900000000001 121.188 59.12700000000001 C 121.209 59.36700000000001 121.218 59.60600000000001 121.218 59.84400000000001 C 121.219 60.083 121.209 60.321 121.188 60.559 z M 120.281 58.979 C 120.248 58.698 120.177 58.452 120.07000000000001 58.237 C 119.96300000000001 58.024 119.808 57.85 119.60700000000001 57.719 C 119.40600000000002 57.586 119.14000000000001 57.52 118.81000000000002 57.52 C 118.48100000000002 57.52 118.21500000000002 57.586000000000006 118.01300000000002 57.719 C 117.81200000000003 57.85 117.65800000000002 58.024 117.55000000000003 58.237 C 117.44400000000003 58.452000000000005 117.37100000000002 58.698 117.33400000000003 58.979 C 117.29700000000003 59.258 117.27800000000003 59.545 117.27800000000003 59.842 C 117.27800000000003 60.138999999999996 117.29700000000004 60.428 117.33400000000003 60.707 C 117.37100000000002 60.986000000000004 117.44300000000003 61.234 117.55000000000003 61.447 C 117.65700000000002 61.662000000000006 117.81200000000003 61.834 118.01300000000002 61.967000000000006 C 118.21500000000002 62.098000000000006 118.48100000000002 62.16400000000001 118.81000000000002 62.16400000000001 C 119.14000000000001 62.16400000000001 119.40600000000002 62.098000000000006 119.60700000000001 61.967000000000006 C 119.808 61.834 119.96200000000002 61.662000000000006 120.07000000000001 61.447 C 120.177 61.234 120.248 60.986000000000004 120.281 60.707 C 120.313 60.428 120.33000000000001 60.139 120.33000000000001 59.842 C 120.33000000000001 59.544999999999995 120.313 59.258 120.281 58.979 z" stroke-linecap="round" />
</g>
		<g transform="matrix(1 0 0 1 -45.78 -0.67)"  >
<path style="stroke: none; stroke-width: 1; stroke-dasharray: none; stroke-linecap: butt; stroke-dashoffset: 0; stroke-linejoin: miter; stroke-miterlimit: 4; fill: rgb(255,255,255); fill-rule: nonzero; opacity: 1;" vector-effect="non-scaling-stroke"  transform=" translate(-41.61, -43.03)" d="M 48.255 47.508 C 47.261 47.508 46.907000000000004 47.074000000000005 46.907000000000004 46.047000000000004 L 46.943000000000005 37.723000000000006 C 46.943000000000005 37.407000000000004 46.876000000000005 37.23700000000001 46.52400000000001 37.23700000000001 C 46.43200000000001 37.23700000000001 46.223000000000006 37.26200000000001 45.90400000000001 37.29600000000001 C 45.17600000000001 37.38000000000001 43.82700000000001 37.501000000000005 42.21500000000001 37.550000000000004 L 42.14400000000001 37.55200000000001 L 42.14400000000001 38.593 L 42.21800000000001 38.593 C 43.06700000000001 38.593 43.63200000000001 38.825 43.63200000000001 39.812000000000005 L 43.59900000000001 42.23500000000001 C 43.59900000000001 46.251000000000005 41.99000000000001 47.028000000000006 40.81500000000001 47.028000000000006 C 39.85300000000001 47.028000000000006 39.49500000000001 46.032000000000004 39.49500000000001 45.196000000000005 L 39.54100000000001 37.724000000000004 C 39.54100000000001 37.408 39.47400000000001 37.23800000000001 39.12300000000001 37.23800000000001 C 39.03300000000001 37.23800000000001 38.820000000000014 37.263000000000005 38.500000000000014 37.297000000000004 C 37.77300000000002 37.38100000000001 36.579000000000015 37.502 34.97000000000001 37.551 L 34.89700000000001 37.553000000000004 L 34.89700000000001 38.594 L 34.972000000000016 38.594 C 35.823000000000015 38.594 36.38500000000001 38.826 36.38500000000001 39.813 L 36.34000000000001 44.854 C 36.34000000000001 48.137 38.03800000000001 48.827 39.46100000000001 48.827 C 41.585000000000015 48.827 42.80300000000001 47.442 43.466000000000015 46.702 C 43.649000000000015 46.492999999999995 43.83400000000002 46.282 43.90100000000002 46.282 C 43.93400000000002 46.282 44.03400000000002 46.282 44.03400000000002 46.437999999999995 L 44.03400000000002 48.47899999999999 C 44.03400000000002 48.78199999999999 44.23900000000002 48.82699999999999 44.35900000000002 48.82699999999999 C 44.45200000000003 48.82699999999999 44.657000000000025 48.80199999999999 44.96700000000002 48.75699999999999 C 45.71700000000002 48.654999999999994 46.97500000000002 48.55199999999999 48.25600000000002 48.55199999999999 L 48.33200000000002 48.55199999999999 L 48.33200000000002 47.510999999999996 L 48.255 47.510999999999996 z" stroke-linecap="round" />
</g>
		<g transform="matrix(1 0 0 1 -20.87 -1.07)"  >
<path style="stroke: none; stroke-width: 1; stroke-dasharray: none; stroke-linecap: butt; stroke-dashoffset: 0; stroke-linejoin: miter; stroke-miterlimit: 4; fill: rgb(255,255,255); fill-rule: nonzero; opacity: 1;" vector-effect="non-scaling-stroke"  transform=" translate(-66.53, -42.64)" d="M 70.233 31.595 C 67.337 31.595 66.554 35.657 66.178 37.671 L 63.842999999999996 37.671 L 63.629 38.711999999999996 L 66.02 38.711999999999996 L 65.865 39.724 C 65.75999999999999 40.403999999999996 65.65599999999999 41.080999999999996 65.553 41.767999999999994 L 65.37599999999999 42.934999999999995 C 64.35699999999999 49.65299999999999 63.84299999999999 52.63999999999999 62.73099999999999 52.63999999999999 C 62.606999999999985 52.63999999999999 62.576999999999984 52.602999999999994 62.576999999999984 52.461999999999996 C 62.576999999999984 52.413 62.59099999999999 52.355 62.60799999999998 52.288 C 62.636999999999986 52.19 62.667999999999985 52.065 62.667999999999985 51.909 C 62.667999999999985 51.448 62.326999999999984 51.124 61.838999999999984 51.124 C 61.10899999999999 51.124 60.777999999999984 51.651 60.777999999999984 52.142 C 60.777999999999984 53.048 61.43799999999998 53.681000000000004 62.38899999999998 53.681000000000004 C 64.08799999999998 53.681000000000004 66.17399999999998 51.722 68.05099999999999 38.71300000000001 L 70.63899999999998 38.71300000000001 L 70.82299999999998 37.67200000000001 L 68.18399999999998 37.67200000000001 L 68.40299999999998 35.96700000000001 C 68.72899999999997 33.631000000000014 69.15199999999997 32.637000000000015 69.81999999999998 32.637000000000015 C 70.08899999999998 32.637000000000015 70.25199999999998 32.774000000000015 70.25199999999998 32.996000000000016 C 70.25199999999998 33.14400000000002 70.23199999999999 33.22000000000001 70.20999999999998 33.29700000000002 C 70.18699999999998 33.38600000000002 70.15899999999998 33.478000000000016 70.15899999999998 33.66200000000002 C 70.15899999999998 34.04700000000002 70.39899999999997 34.49500000000002 71.08299999999998 34.49500000000002 C 71.90899999999998 34.49500000000002 72.27799999999998 33.859000000000016 72.27799999999998 33.228000000000016 C 72.278 32.189 71.534 31.595 70.233 31.595" stroke-linecap="round" />
</g>
		<g transform="matrix(1 0 0 1 -15.52 3.72)"  >
<path style="stroke: none; stroke-width: 1; stroke-dasharray: none; stroke-linecap: butt; stroke-dashoffset: 0; stroke-linejoin: miter; stroke-miterlimit: 4; fill: rgb(255,255,255); fill-rule: nonzero; opacity: 1;" vector-effect="non-scaling-stroke"  transform=" translate(-71.88, -47.42)" d="M 71.876 46.063 C 71.13000000000001 46.063 70.521 46.672000000000004 70.521 47.422000000000004 C 70.521 48.168000000000006 71.13 48.779 71.876 48.779 C 72.62700000000001 48.779 73.23700000000001 48.168000000000006 73.23700000000001 47.422000000000004 C 73.237 46.672 72.627 46.063 71.876 46.063" stroke-linecap="round" />
</g>
		<g transform="matrix(1 0 0 1 -33.05 0)"  >
<path style="stroke: none; stroke-width: 1; stroke-dasharray: none; stroke-linecap: butt; stroke-dashoffset: 0; stroke-linejoin: miter; stroke-miterlimit: 4; fill: rgb(255,255,255); fill-rule: nonzero; opacity: 1;" vector-effect="non-scaling-stroke"  transform=" translate(-54.36, -43.7)" d="M 31.233 66.821 L 77.477 66.821 L 77.477 20.579 L 31.233 20.579 L 31.233 66.821 z M 80.264 69.61 L 28.446 69.61 L 28.446 17.791 L 80.263 17.791 L 80.263 69.61 z" stroke-linecap="round" />
</g>
		<g transform="matrix(1 0 0 1 -32.19 1.71)"  >
<path style="stroke: none; stroke-width: 1; stroke-dasharray: none; stroke-linecap: butt; stroke-dashoffset: 0; stroke-linejoin: miter; stroke-miterlimit: 4; fill: rgb(255,255,255); fill-rule: nonzero; opacity: 1;" vector-effect="non-scaling-stroke"  transform=" translate(-55.21, -45.41)" d="M 59.727 41.438 C 59.727 43.301 58.834999999999994 47.383 56.187 47.383 C 54.708999999999996 47.383 54.187 45.883 54.187 44.602000000000004 C 54.187 42.120000000000005 55.367 38.678000000000004 57.586999999999996 38.678000000000004 C 59.354 38.679 59.727 40.181 59.727 41.438 M 58.208 37.237 C 56.128 37.237 55.003 38.68 54.519 39.371 C 54.492 37.995000000000005 53.98 37.352000000000004 52.914 37.352000000000004 C 51.187000000000005 37.352000000000004 50.179 39.706 49.635000000000005 40.973000000000006 L 49.608000000000004 41.034000000000006 L 50.422000000000004 41.495000000000005 L 50.458000000000006 41.426 C 50.495000000000005 41.349000000000004 50.54200000000001 41.238 50.604000000000006 41.108000000000004 C 50.95700000000001 40.324000000000005 51.690000000000005 38.693000000000005 52.452000000000005 38.693000000000005 C 52.868 38.693000000000005 52.931000000000004 39.205000000000005 52.931000000000004 39.51200000000001 C 52.931000000000004 39.952000000000005 52.798 40.64800000000001 52.56700000000001 41.69700000000001 L 50.412000000000006 50.93900000000001 C 50.10000000000001 52.31000000000001 49.95 52.531000000000006 48.580000000000005 52.531000000000006 L 48.519000000000005 52.531000000000006 L 48.333000000000006 53.574000000000005 L 54.11800000000001 53.574000000000005 L 54.35800000000001 52.531000000000006 L 54.26700000000001 52.531000000000006 C 52.47900000000001 52.531000000000006 52.18200000000001 52.511 52.18200000000001 51.82600000000001 C 52.18200000000001 51.681000000000004 52.26300000000001 51.33800000000001 52.32600000000001 51.06000000000001 L 53.348000000000006 46.72800000000001 C 53.90500000000001 47.88600000000001 54.58200000000001 48.82600000000001 56.647000000000006 48.82600000000001 C 60.19800000000001 48.82600000000001 62.08800000000001 44.830000000000005 62.08800000000001 41.94500000000001 C 62.087 39.601 60.888 37.237 58.208 37.237" stroke-linecap="round" />
</g>
</g>
</g>
</svg>